{
	"patcher" : 	{
		"fileversion" : 1,
		"appversion" : 		{
			"major" : 7,
			"minor" : 3,
			"revision" : 5,
			"architecture" : "x64",
			"modernui" : 1
		}
,
		"rect" : [ -137.0, -784.0, 643.0, 590.0 ],
		"openrect" : [ 0.0, 0.0, 126.0, 18.0 ],
		"bglocked" : 0,
		"openinpresentation" : 1,
		"default_fontsize" : 12.0,
		"default_fontface" : 0,
		"default_fontname" : "Arial",
		"gridonopen" : 1,
		"gridsize" : [ 10.0, 10.0 ],
		"gridsnaponopen" : 1,
		"objectsnaponopen" : 1,
		"statusbarvisible" : 2,
		"toolbarvisible" : 1,
		"lefttoolbarpinned" : 0,
		"toptoolbarpinned" : 0,
		"righttoolbarpinned" : 0,
		"bottomtoolbarpinned" : 0,
		"toolbars_unpinned_last_save" : 0,
		"tallnewobj" : 0,
		"boxanimatetime" : 200,
		"enablehscroll" : 1,
		"enablevscroll" : 1,
		"devicewidth" : 0.0,
		"description" : "",
		"digest" : "",
		"tags" : "",
		"style" : "",
		"subpatcher_template" : "",
		"boxes" : [ 			{
				"box" : 				{
					"comment" : "",
					"id" : "obj-12",
					"index" : 0,
					"maxclass" : "outlet",
					"numinlets" : 1,
					"numoutlets" : 0,
					"patching_rect" : [ 180.0, 301.0, 30.0, 30.0 ],
					"style" : ""
				}

			}
, 			{
				"box" : 				{
					"id" : "obj-10",
					"maxclass" : "message",
					"numinlets" : 2,
					"numoutlets" : 1,
					"outlettype" : [ "" ],
					"patching_rect" : [ 428.0, 193.0, 36.0, 22.0 ],
					"style" : "",
					"text" : "UCX"
				}

			}
, 			{
				"box" : 				{
					"id" : "obj-15",
					"maxclass" : "newobj",
					"numinlets" : 1,
					"numoutlets" : 1,
					"outlettype" : [ "" ],
					"patching_rect" : [ 300.0, 260.0, 74.0, 22.0 ],
					"style" : "",
					"text" : "prepend set"
				}

			}
, 			{
				"box" : 				{
					"id" : "obj-8",
					"maxclass" : "newobj",
					"numinlets" : 1,
					"numoutlets" : 1,
					"outlettype" : [ "" ],
					"patching_rect" : [ 300.0, 230.0, 173.0, 22.0 ],
					"style" : "",
					"text" : "sprintf ---totalmixOscSend_%s"
				}

			}
, 			{
				"box" : 				{
					"id" : "obj-7",
					"maxclass" : "newobj",
					"numinlets" : 1,
					"numoutlets" : 1,
					"outlettype" : [ "" ],
					"patching_rect" : [ 300.0, 200.0, 79.0, 22.0 ],
					"style" : "",
					"text" : "loadmess #2"
				}

			}
, 			{
				"box" : 				{
					"id" : "obj-5",
					"maxclass" : "newobj",
					"numinlets" : 0,
					"numoutlets" : 1,
					"outlettype" : [ "" ],
					"patching_rect" : [ 180.0, 30.0, 111.0, 22.0 ],
					"style" : "",
					"text" : "r ---totalmixDegree"
				}

			}
, 			{
				"box" : 				{
					"comment" : "",
					"id" : "obj-2",
					"index" : 0,
					"maxclass" : "inlet",
					"numinlets" : 0,
					"numoutlets" : 1,
					"outlettype" : [ "" ],
					"patching_rect" : [ 254.0, 229.0, 30.0, 30.0 ],
					"style" : ""
				}

			}
, 			{
				"box" : 				{
					"id" : "obj-51",
					"maxclass" : "newobj",
					"numinlets" : 1,
					"numoutlets" : 1,
					"outlettype" : [ "" ],
					"patching_rect" : [ 180.0, 229.0, 55.0, 22.0 ],
					"style" : "",
					"text" : "prepend"
				}

			}
, 			{
				"box" : 				{
					"id" : "obj-47",
					"maxclass" : "newobj",
					"numinlets" : 1,
					"numoutlets" : 1,
					"outlettype" : [ "" ],
					"patching_rect" : [ 210.0, 199.0, 74.0, 22.0 ],
					"style" : "",
					"text" : "prepend set"
				}

			}
, 			{
				"box" : 				{
					"id" : "obj-45",
					"maxclass" : "newobj",
					"numinlets" : 1,
					"numoutlets" : 1,
					"outlettype" : [ "" ],
					"patching_rect" : [ 210.0, 166.0, 79.0, 22.0 ],
					"style" : "",
					"text" : "loadmess #1"
				}

			}
, 			{
				"box" : 				{
					"id" : "obj-36",
					"maxclass" : "newobj",
					"numinlets" : 2,
					"numoutlets" : 1,
					"outlettype" : [ "" ],
					"patching_rect" : [ 180.0, 269.0, 34.0, 22.0 ],
					"style" : "",
					"text" : "gate"
				}

			}
, 			{
				"box" : 				{
					"id" : "obj-29",
					"maxclass" : "newobj",
					"numinlets" : 5,
					"numoutlets" : 1,
					"outlettype" : [ "" ],
					"patching_rect" : [ 180.0, 130.0, 270.0, 22.0 ],
					"style" : "",
					"text" : "zmap 0. 1. 0.635 0.818"
				}

			}
, 			{
				"box" : 				{
					"id" : "obj-1",
					"maxclass" : "newobj",
					"numinlets" : 1,
					"numoutlets" : 4,
					"outlettype" : [ "", "", "", "" ],
					"patching_rect" : [ 540.0, 140.0, 58.0, 22.0 ],
					"restore" : 					{
						"number[3]" : [ -6.0 ],
						"number[4]" : [ 0.0 ]
					}
,
					"style" : "",
					"text" : "autopattr",
					"varname" : "u051012245"
				}

			}
, 			{
				"box" : 				{
					"id" : "obj-6",
					"maxclass" : "newobj",
					"numinlets" : 1,
					"numoutlets" : 1,
					"outlettype" : [ "float" ],
					"patcher" : 					{
						"fileversion" : 1,
						"appversion" : 						{
							"major" : 7,
							"minor" : 3,
							"revision" : 5,
							"architecture" : "x64",
							"modernui" : 1
						}
,
						"rect" : [ 84.0, 129.0, 640.0, 480.0 ],
						"bglocked" : 0,
						"openinpresentation" : 0,
						"default_fontsize" : 12.0,
						"default_fontface" : 0,
						"default_fontname" : "Arial",
						"gridonopen" : 1,
						"gridsize" : [ 15.0, 15.0 ],
						"gridsnaponopen" : 1,
						"objectsnaponopen" : 1,
						"statusbarvisible" : 2,
						"toolbarvisible" : 1,
						"lefttoolbarpinned" : 0,
						"toptoolbarpinned" : 0,
						"righttoolbarpinned" : 0,
						"bottomtoolbarpinned" : 0,
						"toolbars_unpinned_last_save" : 0,
						"tallnewobj" : 0,
						"boxanimatetime" : 200,
						"enablehscroll" : 1,
						"enablevscroll" : 1,
						"devicewidth" : 0.0,
						"description" : "",
						"digest" : "",
						"tags" : "",
						"style" : "",
						"subpatcher_template" : "",
						"boxes" : [ 							{
								"box" : 								{
									"comment" : "",
									"id" : "obj-4",
									"index" : 1,
									"maxclass" : "outlet",
									"numinlets" : 1,
									"numoutlets" : 0,
									"patching_rect" : [ 14.0, 240.0, 30.0, 30.0 ],
									"style" : ""
								}

							}
, 							{
								"box" : 								{
									"comment" : "",
									"id" : "obj-1",
									"index" : 1,
									"maxclass" : "inlet",
									"numinlets" : 0,
									"numoutlets" : 1,
									"outlettype" : [ "" ],
									"patching_rect" : [ 15.0, 15.0, 30.0, 30.0 ],
									"style" : ""
								}

							}
, 							{
								"box" : 								{
									"id" : "obj-43",
									"maxclass" : "newobj",
									"numinlets" : 2,
									"numoutlets" : 1,
									"outlettype" : [ "float" ],
									"patching_rect" : [ 84.0, 160.0, 47.0, 22.0 ],
									"style" : "",
									"text" : "/ 1023."
								}

							}
, 							{
								"box" : 								{
									"id" : "obj-42",
									"maxclass" : "newobj",
									"numinlets" : 2,
									"numoutlets" : 1,
									"outlettype" : [ "float" ],
									"patching_rect" : [ 84.0, 130.0, 75.0, 22.0 ],
									"style" : "",
									"text" : "* 31.166666"
								}

							}
, 							{
								"box" : 								{
									"id" : "obj-41",
									"maxclass" : "newobj",
									"numinlets" : 2,
									"numoutlets" : 1,
									"outlettype" : [ "float" ],
									"patching_rect" : [ 84.0, 100.0, 90.0, 22.0 ],
									"style" : "",
									"text" : "+ 26.82353"
								}

							}
, 							{
								"box" : 								{
									"id" : "obj-34",
									"maxclass" : "newobj",
									"numinlets" : 2,
									"numoutlets" : 1,
									"outlettype" : [ "float" ],
									"patching_rect" : [ 14.0, 210.0, 47.0, 22.0 ],
									"style" : "",
									"text" : "/ 1023."
								}

							}
, 							{
								"box" : 								{
									"id" : "obj-32",
									"maxclass" : "newobj",
									"numinlets" : 2,
									"numoutlets" : 1,
									"outlettype" : [ "float" ],
									"patching_rect" : [ 14.0, 180.0, 45.0, 22.0 ],
									"style" : "",
									"text" : "!- 826."
								}

							}
, 							{
								"box" : 								{
									"id" : "obj-27",
									"maxclass" : "newobj",
									"numinlets" : 1,
									"numoutlets" : 1,
									"outlettype" : [ "float" ],
									"patching_rect" : [ 14.0, 150.0, 31.0, 22.0 ],
									"style" : "",
									"text" : "sqrt"
								}

							}
, 							{
								"box" : 								{
									"id" : "obj-10",
									"maxclass" : "newobj",
									"numinlets" : 2,
									"numoutlets" : 1,
									"outlettype" : [ "float" ],
									"patching_rect" : [ 14.0, 120.0, 62.0, 22.0 ],
									"style" : "",
									"text" : "!- -34869."
								}

							}
, 							{
								"box" : 								{
									"id" : "obj-6",
									"maxclass" : "newobj",
									"numinlets" : 2,
									"numoutlets" : 1,
									"outlettype" : [ "float" ],
									"patching_rect" : [ 14.0, 90.0, 54.0, 22.0 ],
									"style" : "",
									"text" : "* 11033."
								}

							}
, 							{
								"box" : 								{
									"id" : "obj-2",
									"maxclass" : "newobj",
									"numinlets" : 1,
									"numoutlets" : 2,
									"outlettype" : [ "", "" ],
									"patching_rect" : [ 14.0, 60.0, 187.0, 22.0 ],
									"style" : "",
									"text" : "if $f1 <= -6 then $f1 else out2 $f1"
								}

							}
 ],
						"lines" : [ 							{
								"patchline" : 								{
									"destination" : [ "obj-2", 0 ],
									"source" : [ "obj-1", 0 ]
								}

							}
, 							{
								"patchline" : 								{
									"destination" : [ "obj-27", 0 ],
									"source" : [ "obj-10", 0 ]
								}

							}
, 							{
								"patchline" : 								{
									"destination" : [ "obj-41", 0 ],
									"source" : [ "obj-2", 1 ]
								}

							}
, 							{
								"patchline" : 								{
									"destination" : [ "obj-6", 0 ],
									"source" : [ "obj-2", 0 ]
								}

							}
, 							{
								"patchline" : 								{
									"destination" : [ "obj-32", 0 ],
									"source" : [ "obj-27", 0 ]
								}

							}
, 							{
								"patchline" : 								{
									"destination" : [ "obj-34", 0 ],
									"source" : [ "obj-32", 0 ]
								}

							}
, 							{
								"patchline" : 								{
									"destination" : [ "obj-4", 0 ],
									"source" : [ "obj-34", 0 ]
								}

							}
, 							{
								"patchline" : 								{
									"destination" : [ "obj-42", 0 ],
									"source" : [ "obj-41", 0 ]
								}

							}
, 							{
								"patchline" : 								{
									"destination" : [ "obj-43", 0 ],
									"source" : [ "obj-42", 0 ]
								}

							}
, 							{
								"patchline" : 								{
									"destination" : [ "obj-10", 0 ],
									"source" : [ "obj-6", 0 ]
								}

							}
 ],
						"styles" : [ 							{
								"name" : "Jamoma_highlighted_orange",
								"default" : 								{
									"accentcolor" : [ 1.0, 0.5, 0.0, 1.0 ]
								}
,
								"parentstyle" : "",
								"multi" : 0
							}
 ]
					}
,
					"patching_rect" : [ 430.0, 100.0, 86.0, 22.0 ],
					"saved_object_attributes" : 					{
						"description" : "",
						"digest" : "",
						"globalpatchername" : "",
						"style" : "",
						"tags" : ""
					}
,
					"style" : "",
					"text" : "p totalMixCalc"
				}

			}
, 			{
				"box" : 				{
					"id" : "obj-3",
					"maxclass" : "newobj",
					"numinlets" : 1,
					"numoutlets" : 1,
					"outlettype" : [ "float" ],
					"patcher" : 					{
						"fileversion" : 1,
						"appversion" : 						{
							"major" : 7,
							"minor" : 3,
							"revision" : 5,
							"architecture" : "x64",
							"modernui" : 1
						}
,
						"rect" : [ 84.0, 129.0, 640.0, 480.0 ],
						"bglocked" : 0,
						"openinpresentation" : 0,
						"default_fontsize" : 12.0,
						"default_fontface" : 0,
						"default_fontname" : "Arial",
						"gridonopen" : 1,
						"gridsize" : [ 15.0, 15.0 ],
						"gridsnaponopen" : 1,
						"objectsnaponopen" : 1,
						"statusbarvisible" : 2,
						"toolbarvisible" : 1,
						"lefttoolbarpinned" : 0,
						"toptoolbarpinned" : 0,
						"righttoolbarpinned" : 0,
						"bottomtoolbarpinned" : 0,
						"toolbars_unpinned_last_save" : 0,
						"tallnewobj" : 0,
						"boxanimatetime" : 200,
						"enablehscroll" : 1,
						"enablevscroll" : 1,
						"devicewidth" : 0.0,
						"description" : "",
						"digest" : "",
						"tags" : "",
						"style" : "",
						"subpatcher_template" : "",
						"boxes" : [ 							{
								"box" : 								{
									"comment" : "",
									"id" : "obj-4",
									"index" : 1,
									"maxclass" : "outlet",
									"numinlets" : 1,
									"numoutlets" : 0,
									"patching_rect" : [ 14.0, 240.0, 30.0, 30.0 ],
									"style" : ""
								}

							}
, 							{
								"box" : 								{
									"comment" : "",
									"id" : "obj-1",
									"index" : 1,
									"maxclass" : "inlet",
									"numinlets" : 0,
									"numoutlets" : 1,
									"outlettype" : [ "" ],
									"patching_rect" : [ 15.0, 15.0, 30.0, 30.0 ],
									"style" : ""
								}

							}
, 							{
								"box" : 								{
									"id" : "obj-43",
									"maxclass" : "newobj",
									"numinlets" : 2,
									"numoutlets" : 1,
									"outlettype" : [ "float" ],
									"patching_rect" : [ 84.0, 160.0, 47.0, 22.0 ],
									"style" : "",
									"text" : "/ 1023."
								}

							}
, 							{
								"box" : 								{
									"id" : "obj-42",
									"maxclass" : "newobj",
									"numinlets" : 2,
									"numoutlets" : 1,
									"outlettype" : [ "float" ],
									"patching_rect" : [ 84.0, 130.0, 75.0, 22.0 ],
									"style" : "",
									"text" : "* 31.166666"
								}

							}
, 							{
								"box" : 								{
									"id" : "obj-41",
									"maxclass" : "newobj",
									"numinlets" : 2,
									"numoutlets" : 1,
									"outlettype" : [ "float" ],
									"patching_rect" : [ 84.0, 100.0, 90.0, 22.0 ],
									"style" : "",
									"text" : "+ 26.82353"
								}

							}
, 							{
								"box" : 								{
									"id" : "obj-34",
									"maxclass" : "newobj",
									"numinlets" : 2,
									"numoutlets" : 1,
									"outlettype" : [ "float" ],
									"patching_rect" : [ 14.0, 210.0, 47.0, 22.0 ],
									"style" : "",
									"text" : "/ 1023."
								}

							}
, 							{
								"box" : 								{
									"id" : "obj-32",
									"maxclass" : "newobj",
									"numinlets" : 2,
									"numoutlets" : 1,
									"outlettype" : [ "float" ],
									"patching_rect" : [ 14.0, 180.0, 45.0, 22.0 ],
									"style" : "",
									"text" : "!- 826."
								}

							}
, 							{
								"box" : 								{
									"id" : "obj-27",
									"maxclass" : "newobj",
									"numinlets" : 1,
									"numoutlets" : 1,
									"outlettype" : [ "float" ],
									"patching_rect" : [ 14.0, 150.0, 31.0, 22.0 ],
									"style" : "",
									"text" : "sqrt"
								}

							}
, 							{
								"box" : 								{
									"id" : "obj-10",
									"maxclass" : "newobj",
									"numinlets" : 2,
									"numoutlets" : 1,
									"outlettype" : [ "float" ],
									"patching_rect" : [ 14.0, 120.0, 62.0, 22.0 ],
									"style" : "",
									"text" : "!- -34869."
								}

							}
, 							{
								"box" : 								{
									"id" : "obj-6",
									"maxclass" : "newobj",
									"numinlets" : 2,
									"numoutlets" : 1,
									"outlettype" : [ "float" ],
									"patching_rect" : [ 14.0, 90.0, 54.0, 22.0 ],
									"style" : "",
									"text" : "* 11033."
								}

							}
, 							{
								"box" : 								{
									"id" : "obj-2",
									"maxclass" : "newobj",
									"numinlets" : 1,
									"numoutlets" : 2,
									"outlettype" : [ "", "" ],
									"patching_rect" : [ 14.0, 60.0, 187.0, 22.0 ],
									"style" : "",
									"text" : "if $f1 <= -6 then $f1 else out2 $f1"
								}

							}
 ],
						"lines" : [ 							{
								"patchline" : 								{
									"destination" : [ "obj-2", 0 ],
									"source" : [ "obj-1", 0 ]
								}

							}
, 							{
								"patchline" : 								{
									"destination" : [ "obj-27", 0 ],
									"source" : [ "obj-10", 0 ]
								}

							}
, 							{
								"patchline" : 								{
									"destination" : [ "obj-41", 0 ],
									"source" : [ "obj-2", 1 ]
								}

							}
, 							{
								"patchline" : 								{
									"destination" : [ "obj-6", 0 ],
									"source" : [ "obj-2", 0 ]
								}

							}
, 							{
								"patchline" : 								{
									"destination" : [ "obj-32", 0 ],
									"source" : [ "obj-27", 0 ]
								}

							}
, 							{
								"patchline" : 								{
									"destination" : [ "obj-34", 0 ],
									"source" : [ "obj-32", 0 ]
								}

							}
, 							{
								"patchline" : 								{
									"destination" : [ "obj-4", 0 ],
									"source" : [ "obj-34", 0 ]
								}

							}
, 							{
								"patchline" : 								{
									"destination" : [ "obj-42", 0 ],
									"source" : [ "obj-41", 0 ]
								}

							}
, 							{
								"patchline" : 								{
									"destination" : [ "obj-43", 0 ],
									"source" : [ "obj-42", 0 ]
								}

							}
, 							{
								"patchline" : 								{
									"destination" : [ "obj-10", 0 ],
									"source" : [ "obj-6", 0 ]
								}

							}
 ],
						"styles" : [ 							{
								"name" : "Jamoma_highlighted_orange",
								"default" : 								{
									"accentcolor" : [ 1.0, 0.5, 0.0, 1.0 ]
								}
,
								"parentstyle" : "",
								"multi" : 0
							}
 ]
					}
,
					"patching_rect" : [ 270.0, 100.0, 86.0, 22.0 ],
					"saved_object_attributes" : 					{
						"description" : "",
						"digest" : "",
						"globalpatchername" : "",
						"style" : "",
						"tags" : ""
					}
,
					"style" : "",
					"text" : "p totalMixCalc"
				}

			}
, 			{
				"box" : 				{
					"bgcolor" : [ 0.083291, 0.108786, 0.134679, 1.0 ],
					"fontname" : "Helvetica",
					"fontsize" : 10.0,
					"format" : 6,
					"id" : "obj-68",
					"maxclass" : "flonum",
					"maximum" : 6.0,
					"minimum" : -65.0,
					"numinlets" : 1,
					"numoutlets" : 2,
					"outlettype" : [ "", "bang" ],
					"parameter_enable" : 0,
					"patching_rect" : [ 430.0, 70.0, 47.0, 18.0 ],
					"presentation" : 1,
					"presentation_rect" : [ 80.0, 0.0, 47.0, 18.0 ],
					"style" : "",
					"textcolor" : [ 1.0, 0.600009, 0.0, 1.0 ],
					"tricolor" : [ 0.417999, 0.512071, 0.611858, 1.0 ],
					"varname" : "number[4]"
				}

			}
, 			{
				"box" : 				{
					"bgcolor" : [ 0.083291, 0.108786, 0.134679, 1.0 ],
					"fontname" : "Helvetica",
					"fontsize" : 10.0,
					"format" : 6,
					"id" : "obj-26",
					"maxclass" : "flonum",
					"maximum" : 6.0,
					"minimum" : -65.0,
					"numinlets" : 1,
					"numoutlets" : 2,
					"outlettype" : [ "", "bang" ],
					"parameter_enable" : 0,
					"patching_rect" : [ 270.0, 70.0, 47.0, 18.0 ],
					"presentation" : 1,
					"presentation_rect" : [ 0.0, 0.0, 47.0, 18.0 ],
					"style" : "",
					"textcolor" : [ 1.0, 0.600009, 0.0, 1.0 ],
					"tricolor" : [ 0.417999, 0.512071, 0.611858, 1.0 ],
					"varname" : "number[3]"
				}

			}
, 			{
				"box" : 				{
					"angle" : 269.260101,
					"bgcolor" : [ 0.184314, 0.2, 0.219608, 1.0 ],
					"bordercolor" : [ 0.803922, 0.898039, 0.909804, 0.0 ],
					"id" : "obj-160",
					"maxclass" : "panel",
					"mode" : 0,
					"numinlets" : 1,
					"numoutlets" : 0,
					"presentation" : 1,
					"presentation_rect" : [ 0.0, 0.0, 127.0, 18.0 ],
					"proportion" : 0.39,
					"rounded" : 0,
					"style" : ""
				}

			}
 ],
		"lines" : [ 			{
				"patchline" : 				{
					"destination" : [ "obj-8", 0 ],
					"source" : [ "obj-10", 0 ]
				}

			}
, 			{
				"patchline" : 				{
					"destination" : [ "obj-36", 0 ],
					"source" : [ "obj-2", 0 ]
				}

			}
, 			{
				"patchline" : 				{
					"destination" : [ "obj-3", 0 ],
					"source" : [ "obj-26", 0 ]
				}

			}
, 			{
				"patchline" : 				{
					"destination" : [ "obj-51", 0 ],
					"source" : [ "obj-29", 0 ]
				}

			}
, 			{
				"patchline" : 				{
					"destination" : [ "obj-29", 3 ],
					"source" : [ "obj-3", 0 ]
				}

			}
, 			{
				"patchline" : 				{
					"destination" : [ "obj-12", 0 ],
					"source" : [ "obj-36", 0 ]
				}

			}
, 			{
				"patchline" : 				{
					"destination" : [ "obj-47", 0 ],
					"source" : [ "obj-45", 0 ]
				}

			}
, 			{
				"patchline" : 				{
					"destination" : [ "obj-51", 0 ],
					"source" : [ "obj-47", 0 ]
				}

			}
, 			{
				"patchline" : 				{
					"destination" : [ "obj-29", 0 ],
					"source" : [ "obj-5", 0 ]
				}

			}
, 			{
				"patchline" : 				{
					"destination" : [ "obj-36", 1 ],
					"source" : [ "obj-51", 0 ]
				}

			}
, 			{
				"patchline" : 				{
					"destination" : [ "obj-29", 4 ],
					"source" : [ "obj-6", 0 ]
				}

			}
, 			{
				"patchline" : 				{
					"destination" : [ "obj-6", 0 ],
					"source" : [ "obj-68", 0 ]
				}

			}
, 			{
				"patchline" : 				{
					"destination" : [ "obj-8", 0 ],
					"source" : [ "obj-7", 0 ]
				}

			}
, 			{
				"patchline" : 				{
					"destination" : [ "obj-15", 0 ],
					"source" : [ "obj-8", 0 ]
				}

			}
 ],
		"dependency_cache" : [  ],
		"autosave" : 0,
		"styles" : [ 			{
				"name" : "Jamoma_highlighted_orange",
				"default" : 				{
					"accentcolor" : [ 1.0, 0.5, 0.0, 1.0 ]
				}
,
				"parentstyle" : "",
				"multi" : 0
			}
 ]
	}

}
